# Alias OBJ Model File
# Exported from SketchUp, (c) 2000-2012 Trimble Navigation Limited
# File units = millimeters

mtllib POLAROID.mtl

g Mesh1 Group2 Group1 Model

usemtl Color_M01
v -31 89 2
vt 0 0
vn 0 0 1
v -25 83 2
vt 0.23622 0.23622
v 31 89 2
vt 0 2.44094
f 1/1/1 2/2/1 3/3/1

v -31 0 2
vt 3.50394 0
f 2/2/1 1/1/1 4/4/1

usemtl Color_M07
v -31 89 0
vn -1 8.32667e-17 0
vt 3.50394 0.0787402
vt 0 0.0787402
f 5/1/2 4/5/2 1/6/2

v -31 0 0
f 4/5/2 5/1/2 6/4/2

v 31 0 0
vt 2.44094 0
vn -8.32667e-17 -1 0
f 7/7/3 4/6/3 6/1/3

v 31 0 2
vt 2.44094 0.0787402
f 4/6/3 7/7/3 8/8/3

vt -3.50394 0
vn 1 -8.32667e-17 0
vt -3.50394 0.0787402
f 7/9/4 3/6/4 8/10/4

v 31 89 0
f 3/6/4 7/9/4 9/1/4

vn 8.32667e-17 1 0
vt -2.44094 0.0787402
vt -2.44094 0
f 5/1/5 3/11/5 9/12/5

f 3/11/5 5/1/5 1/6/5

usemtl Color_M01
v 25 83 2
vt 0.23622 2.20472
vt 3.50394 2.44094
f 3/3/1 10/13/1 8/14/1

f 10/13/1 3/3/1 2/2/1

vt 0.23622 0.0787402
v 25 83 1.5
vt 2.20472 0.0590551
vt 2.20472 0.0787402
f 2/15/3 11/16/3 10/17/3

v -25 83 1.5
vt 0.23622 0.0590551
f 11/16/3 2/15/3 12/18/3

vt -0.23622 0.0787402
vn 1 -7.22512e-17 0
v -25 19 1.5
vt -2.75591 0.0590551
vt -0.23622 0.0590551
f 2/19/6 13/20/6 12/21/6

v -25 19 2
vt -2.75591 0.0787402
f 13/20/6 2/19/6 14/22/6

vt 2.75591 0.23622
f 2/2/1 4/4/1 14/23/1

f 8/14/1 14/23/1 4/4/1

v 25 19 2
vt 2.75591 2.20472
f 8/14/1 15/24/1 14/23/1

f 8/14/1 10/13/1 15/24/1

vt 2.75591 0.0787402
f 11/18/2 15/25/2 10/15/2

v 25 19 1.5
vt 2.75591 0.0590551
f 15/25/2 11/18/2 16/26/2

vt -2.20472 0.0787402
vt -2.20472 0.0590551
f 13/21/5 15/27/5 16/28/5

f 15/27/5 13/21/5 14/19/5

g Mesh2 Group2 Group1 Model

l 9 5

l 7 9

l 6 7

l 5 6

l 5 1

l 3 1

l 8 3

l 4 8

l 1 4

l 6 4

l 7 8

l 9 3

g Mesh3 Group2 Group1 Model

l 2 10

l 14 2

l 15 14

l 10 15

l 10 11

l 11 16

l 12 11

l 13 12

l 16 13

l 15 16

l 14 13

l 2 12

g Mesh4 Group3 Model

usemtl P0328557
v 25 19 2
vt 0.887097 1.74353e-16
vt 0.0806452 0.989247
v -25 19 2
vt 0.0806452 0
f 17/29/1 2/30/1 18/31/1

vt 0.887097 0.989247
f 2/30/1 17/29/1 10/32/1

vt 8.07329e-16 0
vn 1 -7.04992e-16 0
vt 1.03226 -0.00772849
vt 1.03226 0
f 17/33/7 11/34/7 10/35/7

v 25 19 1.5
vt 8.07329e-16 -0.00772849
f 11/34/7 17/33/7 19/36/7

vt 0.887097 0
vn 2.25597e-16 -1 0
v -25 19 1.5
vt 0.0806452 -0.00772849
vt 0.887097 -0.00772849
f 17/37/8 20/38/8 19/39/8

f 20/38/8 17/37/8 18/31/8

vt -1.03226 0
vn -1 1.76248e-16 0
vt -1.42135e-17 -0.00772849
vt -1.42135e-17 0
f 2/40/9 20/41/9 18/42/9

vt -1.03226 -0.00772849
f 20/41/9 2/40/9 12/43/9

vt -0.0806452 0
vn 0 1 0
vt -0.887097 -0.00772849
vt -0.0806452 -0.00772849
f 2/44/10 11/45/10 12/46/10

vt -0.887097 0
f 11/45/10 2/44/10 10/47/10

vt -0.887097 1.74353e-16
vn 0 0 -1
vt -0.0806452 0.989247
vt -0.887097 0.989247
f 19/48/11 12/49/11 11/50/11

f 12/49/11 19/48/11 20/44/11

g Mesh5 Group3 Model

l 18 2

l 17 18

l 10 17

l 2 10

l 2 12

l 12 11

l 20 12

l 19 20

l 11 19

l 10 11

l 17 19

l 18 20

